PathFileType  4	(X/Y/Z) C:\Users\antoi\Documents\MyRepositories\mobilecap\ResultsAnalysis
DataRate	CameraRate	NumFrames	NumMarkers	Units	OrigDataRate	OrigDataStartFrame	OrigNumFrames
100.0	100.0	6	51	mm	100.0	507	1351
Frame#	Time	r_knee			r_shank_antsup			r_ankle			r_calc			r_5meta			r_toe			L_knee			L_shank_antsup			L_ankle			L_calc			L_5meta			L_toe			r_sh2			r_sh3			r_sh4			L_sh2			L_sh3			r_thigh1			r_thigh2			r_thigh3			r_thigh4			r_thigh5			L_thigh1			L_thigh2			L_thigh3			L_thigh4			r.ASIS			r.PSIS			L.ASIS			L.PSIS			C7			R_Shoulder			L_Shoulder			R_Sternum			L_Sternum			R_humerus			R_elbow_med			R_elbow_lat			R_forearm			R_wrist_radius			R_wrist_ulna			L_humerus			L_elbow_med			L_elbow_lat			L_forearm			L_wrist_radius			L_wrist_ulna			R_HJC			L_HJC			R_HJC_reg			L_HJC_reg			
		X1	Y1	Z1	X2	Y2	Z2	X3	Y3	Z3	X4	Y4	Z4	X5	Y5	Z5	X6	Y6	Z6	X7	Y7	Z7	X8	Y8	Z8	X9	Y9	Z9	X10	Y10	Z10	X11	Y11	Z11	X12	Y12	Z12	X13	Y13	Z13	X14	Y14	Z14	X15	Y15	Z15	X16	Y16	Z16	X17	Y17	Z17	X18	Y18	Z18	X19	Y19	Z19	X20	Y20	Z20	X21	Y21	Z21	X22	Y22	Z22	X23	Y23	Z23	X24	Y24	Z24	X25	Y25	Z25	X26	Y26	Z26	X27	Y27	Z27	X28	Y28	Z28	X29	Y29	Z29	X30	Y30	Z30	X31	Y31	Z31	X32	Y32	Z32	X33	Y33	Z33	X34	Y34	Z34	X35	Y35	Z35	X36	Y36	Z36	X37	Y37	Z37	X38	Y38	Z38	X39	Y39	Z39	X40	Y40	Z40	X41	Y41	Z41	X42	Y42	Z42	X43	Y43	Z43	X44	Y44	Z44	X45	Y45	Z45	X46	Y46	Z46	X47	Y47	Z47	X48	Y48	Z48	X49	Y49	Z49	X50	Y50	Z50	X51	Y51	Z51	

507	5.06000000	-222.83990	549.12408	-416.24469	-189.42701	450.94039	-419.76015	-289.80726	121.41021	-441.82624	-365.71693	73.26191	-499.14795	-188.86794	47.21997	-376.75999	-120.18007	73.91192	-429.90861	-216.81493	558.12013	-810.70201	-230.09767	472.97805	-842.41203	-287.57314	134.51335	-822.90822	-358.93527	78.91214	-757.93641	-192.69859	51.35265	-887.69406	-119.31338	75.06665	-839.74982	-220.13076	344.17019	-394.01677	-254.06870	475.41191	-388.63369	-298.52264	369.98466	-382.28888	-315.86348	483.86816	-816.63048	-319.68263	362.28027	-827.97231	-123.73381	867.48127	-395.59599	-125.50904	757.90236	-403.65202	-181.05543	731.84212	-379.24295	-236.24641	862.98144	-401.94607	-230.43675	748.71490	-400.10509	-106.05495	839.90366	-792.96569	-114.48895	700.21193	-801.10174	-216.00589	846.31634	-802.63535	-228.30838	709.72629	-810.02445	-103.88773	1084.03336	-450.26466	-277.83306	1088.83965	-538.89630	-77.15023	1080.79710	-704.49365	-268.43497	1091.25305	-647.94608	-228.44489	1630.54210	-573.16292	-160.10876	1572.52960	-404.21335	-172.76192	1580.31469	-745.10096	-100.11976	1554.85762	-545.56143	-99.98439	1551.81597	-601.34331	-165.86886	1408.77761	-343.42053	-263.64606	1218.61943	-397.18455	-252.56030	1232.55147	-314.75630	-200.45258	1067.65038	-287.52946	-158.10719	979.56764	-291.23548	-202.67115	982.57791	-277.68484	-202.80346	1452.41391	-819.92861	-253.73790	1221.29491	-748.40078	-254.13543	1232.66428	-829.47265	-215.34762	1172.32483	-861.83811	-160.64098	1000.78510	-875.43278	-201.36233	993.31090	-879.97189	-175.92853	964.26902	-479.24788	-160.72273	968.97879	-685.59549	-153.48797	993.78390	-492.74049	-139.00367	997.50364	-660.80640	
508	5.07000000	-222.30718	549.24181	-417.03629	-189.06312	451.03229	-420.25621	-289.71032	121.60713	-441.80840	-365.73204	73.22980	-499.10679	-188.85454	47.21370	-376.76233	-120.20775	73.87023	-429.89057	-218.09999	557.83090	-811.29946	-231.28085	472.53628	-842.51600	-287.95471	134.01485	-822.86079	-359.11838	77.91348	-757.78860	-192.87529	51.26561	-887.73186	-119.52867	75.14205	-839.76159	-219.97655	344.28039	-394.33007	-253.53455	475.54060	-389.37902	-297.99176	370.29835	-382.93623	-317.03335	483.40711	-816.83057	-320.74284	361.70034	-827.94236	-123.05029	867.49502	-396.92615	-124.76998	757.79623	-404.76977	-180.29223	732.00639	-380.22208	-235.71073	863.31213	-402.05554	-229.56687	748.66269	-401.28075	-106.56020	839.16316	-794.03645	-115.20697	699.57399	-802.01647	-216.22921	845.97364	-803.41912	-228.99432	709.46391	-810.74035	-103.11647	1084.17044	-451.85496	-277.19264	1088.53920	-540.35417	-76.57830	1080.38278	-706.14829	-267.85206	1090.80053	-649.27674	-228.73961	1630.17951	-575.31620	-160.51375	1572.29482	-406.25061	-172.82732	1579.93470	-747.13611	-100.35420	1554.57316	-547.48816	-100.19544	1551.52756	-603.34879	-166.16033	1408.56750	-345.44890	-263.58699	1218.18206	-399.79207	-252.60782	1232.08966	-317.22692	-199.95914	1067.37947	-289.82390	-157.23552	979.36289	-293.62810	-201.90497	982.23817	-280.05329	-202.37349	1451.89407	-821.92405	-252.76609	1220.85105	-750.22537	-252.67429	1231.81702	-831.58349	-213.22211	1171.65723	-863.22774	-157.04430	1000.71397	-876.90349	-197.64417	992.82306	-881.46348	-175.04026	964.24746	-480.49957	-160.05270	968.52902	-686.87253	-152.63861	993.64903	-494.18829	-138.22253	997.13932	-662.29886	
509	5.08000000	-221.77813	549.35171	-417.64426	-188.65694	450.98514	-420.93792	-289.66577	121.75431	-441.82592	-365.73981	73.22436	-499.07107	-188.84750	47.19701	-376.76523	-120.20074	73.89683	-429.89258	-219.37178	557.57775	-811.91408	-232.45470	472.04585	-842.63515	-288.24492	133.57841	-822.77626	-359.37281	77.38587	-757.59955	-193.01482	51.17490	-887.74556	-119.71688	75.19581	-839.79689	-219.75250	344.44626	-394.83990	-252.98515	475.76733	-390.09866	-298.03483	370.58060	-383.40593	-318.18922	482.89514	-817.00393	-321.71065	361.20915	-827.85195	-122.46816	867.48751	-398.42357	-123.99611	757.78328	-405.79088	-179.61232	732.11229	-381.25982	-234.92965	863.33325	-403.16750	-228.82127	748.63861	-402.56307	-106.87551	838.56595	-795.09402	-115.94796	698.90878	-802.96278	-216.48339	845.75698	-804.23399	-229.76093	709.06310	-811.28023	-102.31920	1084.30481	-453.42178	-276.59105	1088.24947	-541.78714	-76.05002	1079.97399	-707.81456	-267.24129	1090.41431	-650.65854	-228.97979	1629.83950	-577.46380	-160.93594	1572.00086	-408.28860	-172.96711	1579.54639	-749.15810	-100.51274	1554.25759	-549.36936	-100.36188	1551.24686	-605.30943	-166.41052	1408.36400	-347.52654	-263.23168	1217.71660	-402.29490	-252.59616	1231.65248	-319.51601	-199.37191	1067.13648	-292.09578	-156.17436	979.26081	-296.02078	-201.06250	981.97089	-282.36245	-201.86069	1451.38286	-824.02248	-251.63589	1220.07981	-752.11609	-251.15335	1231.00210	-833.64051	-211.14225	1171.09520	-865.00941	-153.39676	1000.70450	-878.40753	-193.90243	992.47597	-883.12390	-174.17889	964.23199	-481.77120	-159.41472	968.10842	-688.16831	-151.83085	993.45622	-495.69796	-137.38950	996.80044	-663.86218	
510	5.09000000	-221.18830	549.47493	-418.20821	-188.18284	450.87537	-421.68250	-289.69561	121.78378	-441.90513	-365.69760	73.25086	-499.07282	-188.84885	47.20293	-376.77098	-120.17549	73.96629	-429.90571	-220.56015	557.22397	-812.30844	-233.62828	471.64276	-842.98798	-288.52229	133.09457	-822.63126	-359.64621	77.27380	-757.57541	-193.11003	51.10389	-887.78500	-119.85646	75.18397	-839.82801	-219.41285	344.49412	-395.44598	-252.61771	476.35318	-390.68442	-298.16314	370.81978	-383.51463	-319.28885	482.36359	-817.19648	-322.56899	360.73926	-827.93238	-121.59870	867.60588	-399.55110	-123.30990	757.83307	-406.73646	-178.98205	732.20561	-382.36235	-233.98161	863.27808	-404.67351	-228.23496	748.71348	-403.65280	-107.06038	837.87711	-796.17293	-116.63975	698.29289	-803.82197	-216.72448	845.53559	-805.10070	-230.44429	708.76100	-811.81990	-101.57468	1084.41817	-454.91849	-276.01716	1088.00004	-543.11270	-75.59944	1079.60453	-709.49286	-266.69069	1090.00317	-652.12114	-229.17144	1629.51051	-579.58589	-161.35357	1571.68363	-410.37800	-173.09887	1579.15335	-751.11680	-100.67762	1553.98235	-551.30285	-100.48068	1550.97906	-607.21409	-166.61813	1408.13701	-349.60726	-262.58139	1217.37187	-404.46340	-252.50454	1231.26242	-321.68755	-198.67157	1066.89906	-294.43373	-155.05194	979.23595	-298.31211	-200.07758	981.72820	-284.76011	-201.31802	1450.86706	-826.09744	-250.26710	1219.16983	-754.29745	-249.65132	1230.26300	-835.61606	-209.02774	1170.64488	-866.99657	-149.68795	1000.74876	-879.92072	-190.12798	992.25803	-884.93687	-173.36510	964.21355	-483.03673	-158.83373	967.70854	-689.45712	-151.10434	993.33764	-497.07318	-136.70699	996.43091	-665.35131	
511	5.10000000	-220.55028	549.58084	-418.97893	-187.69864	450.86967	-422.26159	-289.71511	121.79995	-441.97685	-365.67985	73.27383	-499.12731	-188.85072	47.24137	-376.78619	-120.17951	74.00492	-429.92438	-221.55329	556.86523	-812.62273	-234.65472	471.41100	-843.40958	-288.79758	132.60510	-822.50568	-359.78416	77.10916	-757.74193	-193.19122	51.03743	-887.83260	-119.94555	75.13137	-839.84694	-219.04392	344.51302	-395.87466	-252.24896	476.93469	-391.14746	-297.45846	370.92843	-383.81254	-320.25876	481.95168	-817.38622	-323.51849	360.22945	-827.88506	-120.37777	867.91852	-400.11400	-122.69794	757.99875	-407.56451	-178.30899	732.32621	-383.37139	-233.37275	863.53567	-405.74033	-227.66869	748.81342	-404.56018	-107.47895	837.12718	-797.36294	-117.23271	697.83382	-804.58639	-216.89590	845.39007	-806.05635	-230.97638	708.73451	-812.67251	-100.92766	1084.50336	-456.46124	-275.47868	1087.77311	-544.34495	-75.23684	1079.34257	-711.20736	-266.31076	1089.60855	-653.45494	-229.33682	1629.20111	-581.65754	-161.70131	1571.38772	-412.56057	-173.13041	1578.79247	-753.08349	-100.86429	1553.75767	-553.30106	-100.58892	1550.72476	-609.18819	-166.78879	1407.93377	-351.67183	-262.09059	1217.11995	-406.62698	-252.38493	1230.81113	-324.01530	-197.88863	1066.69522	-296.75037	-153.94300	979.21292	-300.55928	-198.87654	981.50016	-287.16310	-200.80138	1450.38499	-828.07771	-248.86420	1218.60641	-756.39735	-248.23594	1229.51715	-837.54782	-206.89683	1170.17426	-868.81674	-145.93290	1000.86147	-881.40548	-186.30136	992.03977	-886.71845	-172.58169	964.17950	-484.32411	-158.37857	967.38512	-690.77196	-150.39295	993.28326	-498.41529	-136.24346	996.11701	-666.81742	
512	5.11000000	-219.98203	549.61674	-419.83933	-187.23961	450.96074	-422.73988	-289.66722	121.87343	-442.02078	-365.72270	73.28717	-499.21856	-188.85306	47.28618	-376.81046	-120.18088	74.02744	-429.97646	-222.30009	556.66099	-813.10914	-235.47198	471.28340	-843.74843	-289.02697	132.22126	-822.47950	-359.75774	76.68505	-758.00223	-193.29123	50.94113	-887.85946	-120.02130	75.09119	-839.89634	-218.70325	344.62398	-396.14710	-251.79642	477.11796	-391.62119	-296.58641	371.00952	-384.49299	-321.05741	481.68391	-817.53009	-324.45635	359.82359	-827.69540	-119.23300	868.25782	-400.65452	-122.04861	758.17354	-408.42790	-177.56706	732.41078	-384.26256	-233.05681	863.89737	-406.58238	-226.97702	748.83007	-405.60654	-107.92152	836.75148	-798.69337	-117.73228	697.55351	-805.43511	-217.02752	845.38227	-807.10632	-231.40545	708.81387	-813.67014	-100.30634	1084.54943	-458.08599	-274.97424	1087.51113	-545.56757	-74.92697	1079.16142	-712.83055	-266.08342	1089.33065	-654.47907	-229.50424	1628.93539	-583.66883	-161.93398	1571.17616	-414.71623	-173.12852	1578.46064	-755.13449	-101.01420	1553.58517	-555.29043	-100.66883	1550.50263	-611.21575	-166.94026	1407.80822	-353.72182	-261.96446	1216.77797	-408.96344	-252.26648	1230.33553	-326.36754	-197.01196	1066.53284	-298.93473	-152.74864	979.23968	-302.82517	-197.52649	981.34994	-289.38656	-200.28631	1449.95489	-830.11968	-247.67197	1218.27010	-758.20372	-246.81542	1228.70833	-839.54894	-204.79242	1169.62710	-870.44005	-142.16721	1000.99114	-882.80220	-182.42782	991.73000	-888.32788	-171.81883	964.11121	-485.60708	-158.04300	967.15209	-692.08633	-149.59309	993.14419	-499.88132	-135.84577	995.95841	-668.29854	
